<svg height="511pt" viewBox="-13 1 511 511.999" width="511pt" xmlns="http://www.w3.org/2000/svg"><path d="m350.863281 321.050781c-4.167969-.796875-8.199219 1.929688-8.996093 6.101563-16.328126 85.050781-42.84375 126.71875-62.210938 146.691406-11.769531 12.136719-22.332031 17.851562-29.199219 20.515625v-172.5c0-4.246094-3.445312-7.6875-7.691406-7.6875s-7.6875 3.4375-7.6875 7.6875v172.496094c-6.882813-2.671875-17.441406-8.382813-29.199219-20.511719-19.367187-19.976562-45.882812-61.640625-62.210937-146.695312-.800781-4.167969-4.828125-6.898438-8.996094-6.097657-4.171875.800781-6.902344 4.828125-6.101563 9 33.582032 174.9375 110.460938 181.730469 113.71875 181.933594.15625.007813.316407.015625.476563.015625h.003906c.160157 0 .316407-.007812.476563-.015625 3.257812-.203125 80.136718-6.996094 113.71875-181.933594.800781-4.171875-1.929688-8.199219-6.101563-9zm0 0" fill="#424144"/><path d="m401.984375 45.800781c-56.945313-10.589843-113.195313 35.0625-125.636719 101.964844s23.640625 129.722656 80.589844 140.3125 113.199219-35.0625 125.636719-101.964844c12.441406-66.902343-23.640625-129.722656-80.589844-140.3125zm0 0" fill="#ff5c64"/><path d="m401.984375 45.800781c-56.945313-10.589843-113.195313 35.0625-125.636719 101.964844s23.640625 129.722656 80.589844 140.3125 113.199219-35.0625 125.636719-101.964844c12.441406-66.902343-23.640625-129.722656-80.589844-140.3125zm0 0" fill="#ff5c64"/><path d="m356.953125 288.070312c56.949219 10.589844 113.203125-35.0625 125.644531-101.96875 9.617188-51.707031-9.757812-100.96875-45.339844-125.574218 0 0-.003906 0-.003906-.003906 18.648438 26.460937 26.925782 62.679687 19.953125 100.183593-8.148437 43.8125-35.085937 78.511719-68.699219 94.269531-18.042968 8.457032-36.230468-10.917968-26.746093-28.441406 13.875-25.628906 21.917969-56.042968 21.917969-88.667968 0-33.292969-8.375-64.285157-22.769532-90.246094-.003906 0-.003906 0-.003906 0-.34375.097656-.703125.195312-1.058594.292968-40.316406 11.597657-74.171875 49.761719-83.484375 99.835938-12.441406 66.90625 23.636719 129.730469 80.589844 140.320312zm0 0" fill="#ff2444"/><path d="m349.414062 328.601562 17.753907 3.300782c6.113281 1.136718 11.992187-2.898438 13.128906-9.011719.605469-3.261719-.257813-6.625-2.359375-9.191406l-20.984375-35.917969-28.796875 26.660156c-2.886719 1.640625-4.898438 4.46875-5.503906 7.730469-1.136719 6.113281 2.894531 11.988281 9.011718 13.128906zm0 0" fill="#ff2444"/><path d="m209.15625 147.75c-12.4375-66.902344-68.6875-112.554688-125.636719-101.964844s-93.027343 73.40625-80.589843 140.308594c12.441406 66.902344 68.691406 112.554688 125.640624 101.964844 56.945313-10.589844 93.027344-73.40625 80.585938-140.308594zm0 0" fill="#ffe266"/><path d="m209.171875 147.75c-12.441406-66.90625-68.695313-112.558594-125.644531-101.964844-3.351563.621094-6.628906 1.433594-9.832032 2.410156 12.285157 3.664063 23.945313 9.808594 34.484376 17.996094 3.4375 2.671875 4.722656 7.25 3.34375 11.378906-6.230469 18.6875-9.667969 39.015626-9.667969 60.296876 0 39.113281 11.558593 75.046874 30.871093 103.371093 2.503907 3.671875 2.316407 8.582031-.460937 12.054688-12.230469 15.273437-28.1875 26.703125-46.773437 32.367187 13.828124 4.125 28.4375 5.132813 43.089843 2.410156 56.953125-10.589843 93.03125-73.414062 80.589844-140.320312zm0 0" fill="#fcd21d"/><path d="m136.121094 328.601562-17.753906 3.300782c-6.113282 1.136718-11.992188-2.898438-13.128907-9.011719-.605469-3.261719.257813-6.625 2.359375-9.191406l20.984375-34.894531 28.796875 25.636718c2.882813 1.640625 4.898438 4.46875 5.503906 7.730469 1.136719 6.113281-2.894531 11.988281-9.011718 13.128906zm0 0" fill="#fcd21d"/><path d="m360.121094 137.867188c0-76.140626-52.542969-137.867188-117.355469-137.867188-64.808594 0-117.351563 61.726562-117.351563 137.867188 0 76.140624 52.542969 137.863281 117.351563 137.863281 64.8125 0 117.355469-61.722657 117.355469-137.863281zm0 0" fill="#88e9ff"/><g fill="#2dd3f9"><path d="m297.058594 15.621094c14.65625 23.007812 23.335937 51.570312 23.335937 82.519531 0 76.140625-52.542969 137.867187-117.351562 137.867187-19.589844 0-38.058594-5.648437-54.292969-15.621093 21.402344 33.597656 55.546875 55.34375 94.015625 55.34375 64.8125 0 117.355469-61.722657 117.355469-137.863281 0-53.128907-25.582032-99.226563-63.0625-122.246094zm0 0"/><path d="m242.765625 321.859375h20.207031c6.957032 0 12.597656-5.640625 12.597656-12.597656 0-3.710938-1.640624-7.234375-4.476562-9.628907l-28.328125-32.101562-28.324219 32.101562c-2.839844 2.394532-4.476562 5.917969-4.476562 9.628907 0 6.957031 5.640625 12.597656 12.597656 12.597656zm0 0"/></g></svg>