<?xml version="1.0"?>
<svg xmlns="http://www.w3.org/2000/svg" viewBox="0 0 64 64" width="512px" height="512px" class=""><g><g id="Outline"><path d="M61.707,31.293l-9-9-1.414,1.414L58.586,31H50.949A18.993,18.993,0,0,0,33,13.051V5.414l7.293,7.293,1.414-1.414-9-9a1,1,0,0,0-1.414,0l-9,9,1.414,1.414L31,5.414v7.637A18.993,18.993,0,0,0,13.051,31H5.414l7.293-7.293-1.414-1.414-9,9a1,1,0,0,0,0,1.414l9,9,1.414-1.414L5.414,33h7.637A18.993,18.993,0,0,0,31,50.949v7.637l-7.293-7.293-1.414,1.414,9,9a1,1,0,0,0,1.414,0l9-9-1.414-1.414L33,58.586V50.949A18.993,18.993,0,0,0,50.949,33h7.637l-7.293,7.293,1.414,1.414,9-9A1,1,0,0,0,61.707,31.293ZM48.949,31h-4A13,13,0,0,0,33,19.051v-4A16.994,16.994,0,0,1,48.949,31ZM32,37a5,5,0,1,1,5-5A5.006,5.006,0,0,1,32,37ZM31,25.08A7,7,0,0,0,25.08,31H21.051A11.01,11.01,0,0,1,31,21.051ZM25.08,33A7,7,0,0,0,31,38.92v4.029A11.01,11.01,0,0,1,21.051,33ZM33,38.92A7,7,0,0,0,38.92,33h4.029A11.01,11.01,0,0,1,33,42.949ZM38.92,31A7,7,0,0,0,33,25.08V21.051A11.01,11.01,0,0,1,42.949,31ZM31,15.051v4A13,13,0,0,0,19.051,31h-4A16.994,16.994,0,0,1,31,15.051ZM15.051,33h4A13,13,0,0,0,31,44.949v4A16.994,16.994,0,0,1,15.051,33ZM33,48.949v-4A13,13,0,0,0,44.949,33h4A16.994,16.994,0,0,1,33,48.949Z" data-original="#000000" class="active-path" data-old_color="#000000" fill="#E7FEFE"/></g></g> </svg>
